<?xml version="1.0" encoding="utf-8" standalone="no"?>
<!DOCTYPE svg PUBLIC "-//W3C//DTD SVG 1.1//EN"
  "http://www.w3.org/Graphics/SVG/1.1/DTD/svg11.dtd">
<svg xmlns:xlink="http://www.w3.org/1999/xlink" width="648pt" height="345.6pt" viewBox="0 0 648 345.6" xmlns="http://www.w3.org/2000/svg" version="1.1">
 <metadata>
  <rdf:RDF xmlns:dc="http://purl.org/dc/elements/1.1/" xmlns:cc="http://creativecommons.org/ns#" xmlns:rdf="http://www.w3.org/1999/02/22-rdf-syntax-ns#">
   <cc:Work>
    <dc:type rdf:resource="http://purl.org/dc/dcmitype/StillImage"/>
    <dc:date>2026-06-12T17:56:40.392474</dc:date>
    <dc:format>image/svg+xml</dc:format>
    <dc:creator>
     <cc:Agent>
      <dc:title>Matplotlib v3.10.9, https://matplotlib.org/</dc:title>
     </cc:Agent>
    </dc:creator>
   </cc:Work>
  </rdf:RDF>
 </metadata>
 <defs>
  <style type="text/css">*{stroke-linejoin: round; stroke-linecap: butt}</style>
 </defs>
 <g id="figure_1">
  <g id="patch_1">
   <path d="M 0 345.6 
L 648 345.6 
L 648 0 
L 0 0 
z
" style="fill: #ffffff"/>
  </g>
  <g id="axes_1">
   <g id="patch_2">
    <path d="M 73.634375 276.48 
L 539.471023 276.48 
L 539.471023 37.86 
L 73.634375 37.86 
z
" style="fill: #fafafa"/>
   </g>
   <g id="FillBetweenPolyCollection_1">
    <defs>
     <path id="m4c49c28812" d="M 94.808768 -93.737936 
L 94.808768 -86.864655 
L 179.07015 -86.987788 
L 242.811424 -101.659764 
L 306.552699 -104.487958 
L 370.293973 -97.893649 
L 421.755805 -127.884047 
L 454.555355 -181.684181 
L 491.84161 -115.281269 
L 518.29663 -95.157805 
L 518.29663 -226.485079 
L 518.29663 -226.485079 
L 491.84161 -210.087327 
L 454.555355 -296.893636 
L 421.755805 -173.826804 
L 370.293973 -158.207286 
L 306.552699 -125.086636 
L 242.811424 -120.384523 
L 179.07015 -106.037693 
L 94.808768 -93.737936 
z
"/>
    </defs>
    <g clip-path="url(#p1181d7ed2a)">
     <use xlink:href="#m4c49c28812" x="0" y="345.6" style="fill: #f85149; fill-opacity: 0.16"/>
    </g>
   </g>
   <g id="FillBetweenPolyCollection_2">
    <defs>
     <path id="m381dbbfa9e" d="M 94.808768 -80.109697 
L 94.808768 -79.966364 
L 179.07015 -80.131823 
L 242.811424 -80.300167 
L 306.552699 -80.628199 
L 370.293973 -81.202496 
L 421.755805 -81.884533 
L 454.555355 -82.694512 
L 491.84161 -83.619928 
L 518.29663 -82.891716 
L 518.29663 -83.670913 
L 518.29663 -83.670913 
L 491.84161 -84.414516 
L 454.555355 -93.09053 
L 421.755805 -82.341469 
L 370.293973 -82.370328 
L 306.552699 -81.423749 
L 242.811424 -81.771021 
L 179.07015 -81.079364 
L 94.808768 -80.109697 
z
"/>
    </defs>
    <g clip-path="url(#p1181d7ed2a)">
     <use xlink:href="#m381dbbfa9e" x="0" y="345.6" style="fill: #1f6feb; fill-opacity: 0.16"/>
    </g>
   </g>
   <g id="matplotlib.axis_1">
    <g id="xtick_1">
     <g id="line2d_1">
      <path d="M 94.808768 276.48 
L 94.808768 37.86 
" clip-path="url(#p1181d7ed2a)" style="fill: none; stroke: #eeeeee; stroke-width: 0.6; stroke-linecap: square"/>
     </g>
     <g id="line2d_2">
      <defs>
       <path id="maeda8a4231" d="M 0 0 
L 0 3.5 
" style="stroke: #000000; stroke-width: 0.8"/>
      </defs>
      <g>
       <use xlink:href="#maeda8a4231" x="94.808768" y="276.48" style="stroke: #000000; stroke-width: 0.8"/>
      </g>
     </g>
     <g id="text_1">
      <!-- 10K -->
      <g transform="translate(86.131502 290.318594) scale(0.09 -0.09)">
       <defs>
        <path id="DejaVuSans-31" d="M 794 531 
L 1825 531 
L 1825 4091 
L 703 3866 
L 703 4441 
L 1819 4666 
L 2450 4666 
L 2450 531 
L 3481 531 
L 3481 0 
L 794 0 
L 794 531 
z
" transform="scale(0.015625)"/>
        <path id="DejaVuSans-30" d="M 2034 4250 
Q 1547 4250 1301 3770 
Q 1056 3291 1056 2328 
Q 1056 1369 1301 889 
Q 1547 409 2034 409 
Q 2525 409 2770 889 
Q 3016 1369 3016 2328 
Q 3016 3291 2770 3770 
Q 2525 4250 2034 4250 
z
M 2034 4750 
Q 2819 4750 3233 4129 
Q 3647 3509 3647 2328 
Q 3647 1150 3233 529 
Q 2819 -91 2034 -91 
Q 1250 -91 836 529 
Q 422 1150 422 2328 
Q 422 3509 836 4129 
Q 1250 4750 2034 4750 
z
" transform="scale(0.015625)"/>
        <path id="DejaVuSans-4b" d="M 628 4666 
L 1259 4666 
L 1259 2694 
L 3353 4666 
L 4166 4666 
L 1850 2491 
L 4331 0 
L 3500 0 
L 1259 2247 
L 1259 0 
L 628 0 
L 628 4666 
z
" transform="scale(0.015625)"/>
       </defs>
       <use xlink:href="#DejaVuSans-31"/>
       <use xlink:href="#DejaVuSans-30" transform="translate(63.623047 0)"/>
       <use xlink:href="#DejaVuSans-4b" transform="translate(127.246094 0)"/>
      </g>
     </g>
    </g>
    <g id="xtick_2">
     <g id="line2d_3">
      <path d="M 306.552699 276.48 
L 306.552699 37.86 
" clip-path="url(#p1181d7ed2a)" style="fill: none; stroke: #eeeeee; stroke-width: 0.6; stroke-linecap: square"/>
     </g>
     <g id="line2d_4">
      <g>
       <use xlink:href="#maeda8a4231" x="306.552699" y="276.48" style="stroke: #000000; stroke-width: 0.8"/>
      </g>
     </g>
     <g id="text_2">
      <!-- 100K -->
      <g transform="translate(295.012308 290.318594) scale(0.09 -0.09)">
       <use xlink:href="#DejaVuSans-31"/>
       <use xlink:href="#DejaVuSans-30" transform="translate(63.623047 0)"/>
       <use xlink:href="#DejaVuSans-30" transform="translate(127.246094 0)"/>
       <use xlink:href="#DejaVuSans-4b" transform="translate(190.869141 0)"/>
      </g>
     </g>
    </g>
    <g id="xtick_3">
     <g id="line2d_5">
      <path d="M 518.29663 276.48 
L 518.29663 37.86 
" clip-path="url(#p1181d7ed2a)" style="fill: none; stroke: #eeeeee; stroke-width: 0.6; stroke-linecap: square"/>
     </g>
     <g id="line2d_6">
      <g>
       <use xlink:href="#maeda8a4231" x="518.29663" y="276.48" style="stroke: #000000; stroke-width: 0.8"/>
      </g>
     </g>
     <g id="text_3">
      <!-- 1M -->
      <g transform="translate(511.550848 290.318594) scale(0.09 -0.09)">
       <defs>
        <path id="DejaVuSans-4d" d="M 628 4666 
L 1569 4666 
L 2759 1491 
L 3956 4666 
L 4897 4666 
L 4897 0 
L 4281 0 
L 4281 4097 
L 3078 897 
L 2444 897 
L 1241 4097 
L 1241 0 
L 628 0 
L 628 4666 
z
" transform="scale(0.015625)"/>
       </defs>
       <use xlink:href="#DejaVuSans-31"/>
       <use xlink:href="#DejaVuSans-4d" transform="translate(63.623047 0)"/>
      </g>
     </g>
    </g>
    <g id="xtick_4">
     <g id="line2d_7">
      <defs>
       <path id="m6fedf38628" d="M 0 0 
L 0 2 
" style="stroke: #000000; stroke-width: 0.6"/>
      </defs>
      <g>
       <use xlink:href="#m6fedf38628" x="74.288661" y="276.48" style="stroke: #000000; stroke-width: 0.6"/>
      </g>
     </g>
    </g>
    <g id="xtick_5">
     <g id="line2d_8">
      <g>
       <use xlink:href="#m6fedf38628" x="85.119897" y="276.48" style="stroke: #000000; stroke-width: 0.6"/>
      </g>
     </g>
    </g>
    <g id="xtick_6">
     <g id="line2d_9">
      <g>
       <use xlink:href="#m6fedf38628" x="158.550043" y="276.48" style="stroke: #000000; stroke-width: 0.6"/>
      </g>
     </g>
    </g>
    <g id="xtick_7">
     <g id="line2d_10">
      <g>
       <use xlink:href="#m6fedf38628" x="195.836298" y="276.48" style="stroke: #000000; stroke-width: 0.6"/>
      </g>
     </g>
    </g>
    <g id="xtick_8">
     <g id="line2d_11">
      <g>
       <use xlink:href="#m6fedf38628" x="222.291317" y="276.48" style="stroke: #000000; stroke-width: 0.6"/>
      </g>
     </g>
    </g>
    <g id="xtick_9">
     <g id="line2d_12">
      <g>
       <use xlink:href="#m6fedf38628" x="242.811424" y="276.48" style="stroke: #000000; stroke-width: 0.6"/>
      </g>
     </g>
    </g>
    <g id="xtick_10">
     <g id="line2d_13">
      <g>
       <use xlink:href="#m6fedf38628" x="259.577573" y="276.48" style="stroke: #000000; stroke-width: 0.6"/>
      </g>
     </g>
    </g>
    <g id="xtick_11">
     <g id="line2d_14">
      <g>
       <use xlink:href="#m6fedf38628" x="273.753149" y="276.48" style="stroke: #000000; stroke-width: 0.6"/>
      </g>
     </g>
    </g>
    <g id="xtick_12">
     <g id="line2d_15">
      <g>
       <use xlink:href="#m6fedf38628" x="286.032592" y="276.48" style="stroke: #000000; stroke-width: 0.6"/>
      </g>
     </g>
    </g>
    <g id="xtick_13">
     <g id="line2d_16">
      <g>
       <use xlink:href="#m6fedf38628" x="296.863828" y="276.48" style="stroke: #000000; stroke-width: 0.6"/>
      </g>
     </g>
    </g>
    <g id="xtick_14">
     <g id="line2d_17">
      <g>
       <use xlink:href="#m6fedf38628" x="370.293973" y="276.48" style="stroke: #000000; stroke-width: 0.6"/>
      </g>
     </g>
    </g>
    <g id="xtick_15">
     <g id="line2d_18">
      <g>
       <use xlink:href="#m6fedf38628" x="407.580229" y="276.48" style="stroke: #000000; stroke-width: 0.6"/>
      </g>
     </g>
    </g>
    <g id="xtick_16">
     <g id="line2d_19">
      <g>
       <use xlink:href="#m6fedf38628" x="434.035248" y="276.48" style="stroke: #000000; stroke-width: 0.6"/>
      </g>
     </g>
    </g>
    <g id="xtick_17">
     <g id="line2d_20">
      <g>
       <use xlink:href="#m6fedf38628" x="454.555355" y="276.48" style="stroke: #000000; stroke-width: 0.6"/>
      </g>
     </g>
    </g>
    <g id="xtick_18">
     <g id="line2d_21">
      <g>
       <use xlink:href="#m6fedf38628" x="471.321503" y="276.48" style="stroke: #000000; stroke-width: 0.6"/>
      </g>
     </g>
    </g>
    <g id="xtick_19">
     <g id="line2d_22">
      <g>
       <use xlink:href="#m6fedf38628" x="485.49708" y="276.48" style="stroke: #000000; stroke-width: 0.6"/>
      </g>
     </g>
    </g>
    <g id="xtick_20">
     <g id="line2d_23">
      <g>
       <use xlink:href="#m6fedf38628" x="497.776523" y="276.48" style="stroke: #000000; stroke-width: 0.6"/>
      </g>
     </g>
    </g>
    <g id="xtick_21">
     <g id="line2d_24">
      <g>
       <use xlink:href="#m6fedf38628" x="508.607759" y="276.48" style="stroke: #000000; stroke-width: 0.6"/>
      </g>
     </g>
    </g>
    <g id="text_4">
     <!-- corpus size (vectors) -->
     <g transform="translate(254.501918 303.78875) scale(0.1 -0.1)">
      <defs>
       <path id="DejaVuSans-63" d="M 3122 3366 
L 3122 2828 
Q 2878 2963 2633 3030 
Q 2388 3097 2138 3097 
Q 1578 3097 1268 2742 
Q 959 2388 959 1747 
Q 959 1106 1268 751 
Q 1578 397 2138 397 
Q 2388 397 2633 464 
Q 2878 531 3122 666 
L 3122 134 
Q 2881 22 2623 -34 
Q 2366 -91 2075 -91 
Q 1284 -91 818 406 
Q 353 903 353 1747 
Q 353 2603 823 3093 
Q 1294 3584 2113 3584 
Q 2378 3584 2631 3529 
Q 2884 3475 3122 3366 
z
" transform="scale(0.015625)"/>
       <path id="DejaVuSans-6f" d="M 1959 3097 
Q 1497 3097 1228 2736 
Q 959 2375 959 1747 
Q 959 1119 1226 758 
Q 1494 397 1959 397 
Q 2419 397 2687 759 
Q 2956 1122 2956 1747 
Q 2956 2369 2687 2733 
Q 2419 3097 1959 3097 
z
M 1959 3584 
Q 2709 3584 3137 3096 
Q 3566 2609 3566 1747 
Q 3566 888 3137 398 
Q 2709 -91 1959 -91 
Q 1206 -91 779 398 
Q 353 888 353 1747 
Q 353 2609 779 3096 
Q 1206 3584 1959 3584 
z
" transform="scale(0.015625)"/>
       <path id="DejaVuSans-72" d="M 2631 2963 
Q 2534 3019 2420 3045 
Q 2306 3072 2169 3072 
Q 1681 3072 1420 2755 
Q 1159 2438 1159 1844 
L 1159 0 
L 581 0 
L 581 3500 
L 1159 3500 
L 1159 2956 
Q 1341 3275 1631 3429 
Q 1922 3584 2338 3584 
Q 2397 3584 2469 3576 
Q 2541 3569 2628 3553 
L 2631 2963 
z
" transform="scale(0.015625)"/>
       <path id="DejaVuSans-70" d="M 1159 525 
L 1159 -1331 
L 581 -1331 
L 581 3500 
L 1159 3500 
L 1159 2969 
Q 1341 3281 1617 3432 
Q 1894 3584 2278 3584 
Q 2916 3584 3314 3078 
Q 3713 2572 3713 1747 
Q 3713 922 3314 415 
Q 2916 -91 2278 -91 
Q 1894 -91 1617 61 
Q 1341 213 1159 525 
z
M 3116 1747 
Q 3116 2381 2855 2742 
Q 2594 3103 2138 3103 
Q 1681 3103 1420 2742 
Q 1159 2381 1159 1747 
Q 1159 1113 1420 752 
Q 1681 391 2138 391 
Q 2594 391 2855 752 
Q 3116 1113 3116 1747 
z
" transform="scale(0.015625)"/>
       <path id="DejaVuSans-75" d="M 544 1381 
L 544 3500 
L 1119 3500 
L 1119 1403 
Q 1119 906 1312 657 
Q 1506 409 1894 409 
Q 2359 409 2629 706 
Q 2900 1003 2900 1516 
L 2900 3500 
L 3475 3500 
L 3475 0 
L 2900 0 
L 2900 538 
Q 2691 219 2414 64 
Q 2138 -91 1772 -91 
Q 1169 -91 856 284 
Q 544 659 544 1381 
z
M 1991 3584 
L 1991 3584 
z
" transform="scale(0.015625)"/>
       <path id="DejaVuSans-73" d="M 2834 3397 
L 2834 2853 
Q 2591 2978 2328 3040 
Q 2066 3103 1784 3103 
Q 1356 3103 1142 2972 
Q 928 2841 928 2578 
Q 928 2378 1081 2264 
Q 1234 2150 1697 2047 
L 1894 2003 
Q 2506 1872 2764 1633 
Q 3022 1394 3022 966 
Q 3022 478 2636 193 
Q 2250 -91 1575 -91 
Q 1294 -91 989 -36 
Q 684 19 347 128 
L 347 722 
Q 666 556 975 473 
Q 1284 391 1588 391 
Q 1994 391 2212 530 
Q 2431 669 2431 922 
Q 2431 1156 2273 1281 
Q 2116 1406 1581 1522 
L 1381 1569 
Q 847 1681 609 1914 
Q 372 2147 372 2553 
Q 372 3047 722 3315 
Q 1072 3584 1716 3584 
Q 2034 3584 2315 3537 
Q 2597 3491 2834 3397 
z
" transform="scale(0.015625)"/>
       <path id="DejaVuSans-20" transform="scale(0.015625)"/>
       <path id="DejaVuSans-69" d="M 603 3500 
L 1178 3500 
L 1178 0 
L 603 0 
L 603 3500 
z
M 603 4863 
L 1178 4863 
L 1178 4134 
L 603 4134 
L 603 4863 
z
" transform="scale(0.015625)"/>
       <path id="DejaVuSans-7a" d="M 353 3500 
L 3084 3500 
L 3084 2975 
L 922 459 
L 3084 459 
L 3084 0 
L 275 0 
L 275 525 
L 2438 3041 
L 353 3041 
L 353 3500 
z
" transform="scale(0.015625)"/>
       <path id="DejaVuSans-65" d="M 3597 1894 
L 3597 1613 
L 953 1613 
Q 991 1019 1311 708 
Q 1631 397 2203 397 
Q 2534 397 2845 478 
Q 3156 559 3463 722 
L 3463 178 
Q 3153 47 2828 -22 
Q 2503 -91 2169 -91 
Q 1331 -91 842 396 
Q 353 884 353 1716 
Q 353 2575 817 3079 
Q 1281 3584 2069 3584 
Q 2775 3584 3186 3129 
Q 3597 2675 3597 1894 
z
M 3022 2063 
Q 3016 2534 2758 2815 
Q 2500 3097 2075 3097 
Q 1594 3097 1305 2825 
Q 1016 2553 972 2059 
L 3022 2063 
z
" transform="scale(0.015625)"/>
       <path id="DejaVuSans-28" d="M 1984 4856 
Q 1566 4138 1362 3434 
Q 1159 2731 1159 2009 
Q 1159 1288 1364 580 
Q 1569 -128 1984 -844 
L 1484 -844 
Q 1016 -109 783 600 
Q 550 1309 550 2009 
Q 550 2706 781 3412 
Q 1013 4119 1484 4856 
L 1984 4856 
z
" transform="scale(0.015625)"/>
       <path id="DejaVuSans-76" d="M 191 3500 
L 800 3500 
L 1894 563 
L 2988 3500 
L 3597 3500 
L 2284 0 
L 1503 0 
L 191 3500 
z
" transform="scale(0.015625)"/>
       <path id="DejaVuSans-74" d="M 1172 4494 
L 1172 3500 
L 2356 3500 
L 2356 3053 
L 1172 3053 
L 1172 1153 
Q 1172 725 1289 603 
Q 1406 481 1766 481 
L 2356 481 
L 2356 0 
L 1766 0 
Q 1100 0 847 248 
Q 594 497 594 1153 
L 594 3053 
L 172 3053 
L 172 3500 
L 594 3500 
L 594 4494 
L 1172 4494 
z
" transform="scale(0.015625)"/>
       <path id="DejaVuSans-29" d="M 513 4856 
L 1013 4856 
Q 1481 4119 1714 3412 
Q 1947 2706 1947 2009 
Q 1947 1309 1714 600 
Q 1481 -109 1013 -844 
L 513 -844 
Q 928 -128 1133 580 
Q 1338 1288 1338 2009 
Q 1338 2731 1133 3434 
Q 928 4138 513 4856 
z
" transform="scale(0.015625)"/>
      </defs>
      <use xlink:href="#DejaVuSans-63"/>
      <use xlink:href="#DejaVuSans-6f" transform="translate(54.980469 0)"/>
      <use xlink:href="#DejaVuSans-72" transform="translate(116.162109 0)"/>
      <use xlink:href="#DejaVuSans-70" transform="translate(157.275391 0)"/>
      <use xlink:href="#DejaVuSans-75" transform="translate(220.751953 0)"/>
      <use xlink:href="#DejaVuSans-73" transform="translate(284.130859 0)"/>
      <use xlink:href="#DejaVuSans-20" transform="translate(336.230469 0)"/>
      <use xlink:href="#DejaVuSans-73" transform="translate(368.017578 0)"/>
      <use xlink:href="#DejaVuSans-69" transform="translate(420.117188 0)"/>
      <use xlink:href="#DejaVuSans-7a" transform="translate(447.900391 0)"/>
      <use xlink:href="#DejaVuSans-65" transform="translate(500.390625 0)"/>
      <use xlink:href="#DejaVuSans-20" transform="translate(561.914062 0)"/>
      <use xlink:href="#DejaVuSans-28" transform="translate(593.701172 0)"/>
      <use xlink:href="#DejaVuSans-76" transform="translate(632.714844 0)"/>
      <use xlink:href="#DejaVuSans-65" transform="translate(691.894531 0)"/>
      <use xlink:href="#DejaVuSans-63" transform="translate(753.417969 0)"/>
      <use xlink:href="#DejaVuSans-74" transform="translate(808.398438 0)"/>
      <use xlink:href="#DejaVuSans-6f" transform="translate(847.607422 0)"/>
      <use xlink:href="#DejaVuSans-72" transform="translate(908.789062 0)"/>
      <use xlink:href="#DejaVuSans-73" transform="translate(949.902344 0)"/>
      <use xlink:href="#DejaVuSans-29" transform="translate(1002.001953 0)"/>
     </g>
    </g>
   </g>
   <g id="matplotlib.axis_2">
    <g id="ytick_1">
     <g id="line2d_25">
      <path d="M 73.634375 266.047284 
L 539.471023 266.047284 
" clip-path="url(#p1181d7ed2a)" style="fill: none; stroke: #dddddd; stroke-width: 0.8; stroke-linecap: square"/>
     </g>
     <g id="line2d_26">
      <defs>
       <path id="m95532898ba" d="M 0 0 
L -3.5 0 
" style="stroke: #000000; stroke-width: 0.8"/>
      </defs>
      <g>
       <use xlink:href="#m95532898ba" x="73.634375" y="266.047284" style="stroke: #000000; stroke-width: 0.8"/>
      </g>
     </g>
     <g id="text_5">
      <!-- 0 MiB -->
      <g transform="translate(41.607344 269.466581) scale(0.09 -0.09)">
       <defs>
        <path id="DejaVuSans-42" d="M 1259 2228 
L 1259 519 
L 2272 519 
Q 2781 519 3026 730 
Q 3272 941 3272 1375 
Q 3272 1813 3026 2020 
Q 2781 2228 2272 2228 
L 1259 2228 
z
M 1259 4147 
L 1259 2741 
L 2194 2741 
Q 2656 2741 2882 2914 
Q 3109 3088 3109 3444 
Q 3109 3797 2882 3972 
Q 2656 4147 2194 4147 
L 1259 4147 
z
M 628 4666 
L 2241 4666 
Q 2963 4666 3353 4366 
Q 3744 4066 3744 3513 
Q 3744 3084 3544 2831 
Q 3344 2578 2956 2516 
Q 3422 2416 3680 2098 
Q 3938 1781 3938 1306 
Q 3938 681 3513 340 
Q 3088 0 2303 0 
L 628 0 
L 628 4666 
z
" transform="scale(0.015625)"/>
       </defs>
       <use xlink:href="#DejaVuSans-30"/>
       <use xlink:href="#DejaVuSans-20" transform="translate(63.623047 0)"/>
       <use xlink:href="#DejaVuSans-4d" transform="translate(95.410156 0)"/>
       <use xlink:href="#DejaVuSans-69" transform="translate(181.689453 0)"/>
       <use xlink:href="#DejaVuSans-42" transform="translate(209.472656 0)"/>
      </g>
     </g>
    </g>
    <g id="ytick_2">
     <g id="line2d_27">
      <path d="M 73.634375 235.264222 
L 539.471023 235.264222 
" clip-path="url(#p1181d7ed2a)" style="fill: none; stroke: #dddddd; stroke-width: 0.8; stroke-linecap: square"/>
     </g>
     <g id="line2d_28">
      <g>
       <use xlink:href="#m95532898ba" x="73.634375" y="235.264222" style="stroke: #000000; stroke-width: 0.8"/>
      </g>
     </g>
     <g id="text_6">
      <!-- 500 MiB -->
      <g transform="translate(30.154844 238.683519) scale(0.09 -0.09)">
       <defs>
        <path id="DejaVuSans-35" d="M 691 4666 
L 3169 4666 
L 3169 4134 
L 1269 4134 
L 1269 2991 
Q 1406 3038 1543 3061 
Q 1681 3084 1819 3084 
Q 2600 3084 3056 2656 
Q 3513 2228 3513 1497 
Q 3513 744 3044 326 
Q 2575 -91 1722 -91 
Q 1428 -91 1123 -41 
Q 819 9 494 109 
L 494 744 
Q 775 591 1075 516 
Q 1375 441 1709 441 
Q 2250 441 2565 725 
Q 2881 1009 2881 1497 
Q 2881 1984 2565 2268 
Q 2250 2553 1709 2553 
Q 1456 2553 1204 2497 
Q 953 2441 691 2322 
L 691 4666 
z
" transform="scale(0.015625)"/>
       </defs>
       <use xlink:href="#DejaVuSans-35"/>
       <use xlink:href="#DejaVuSans-30" transform="translate(63.623047 0)"/>
       <use xlink:href="#DejaVuSans-30" transform="translate(127.246094 0)"/>
       <use xlink:href="#DejaVuSans-20" transform="translate(190.869141 0)"/>
       <use xlink:href="#DejaVuSans-4d" transform="translate(222.65625 0)"/>
       <use xlink:href="#DejaVuSans-69" transform="translate(308.935547 0)"/>
       <use xlink:href="#DejaVuSans-42" transform="translate(336.71875 0)"/>
      </g>
     </g>
    </g>
    <g id="ytick_3">
     <g id="line2d_29">
      <path d="M 73.634375 204.481161 
L 539.471023 204.481161 
" clip-path="url(#p1181d7ed2a)" style="fill: none; stroke: #dddddd; stroke-width: 0.8; stroke-linecap: square"/>
     </g>
     <g id="line2d_30">
      <g>
       <use xlink:href="#m95532898ba" x="73.634375" y="204.481161" style="stroke: #000000; stroke-width: 0.8"/>
      </g>
     </g>
     <g id="text_7">
      <!-- 1000 MiB -->
      <g transform="translate(24.428594 207.900458) scale(0.09 -0.09)">
       <use xlink:href="#DejaVuSans-31"/>
       <use xlink:href="#DejaVuSans-30" transform="translate(63.623047 0)"/>
       <use xlink:href="#DejaVuSans-30" transform="translate(127.246094 0)"/>
       <use xlink:href="#DejaVuSans-30" transform="translate(190.869141 0)"/>
       <use xlink:href="#DejaVuSans-20" transform="translate(254.492188 0)"/>
       <use xlink:href="#DejaVuSans-4d" transform="translate(286.279297 0)"/>
       <use xlink:href="#DejaVuSans-69" transform="translate(372.558594 0)"/>
       <use xlink:href="#DejaVuSans-42" transform="translate(400.341797 0)"/>
      </g>
     </g>
    </g>
    <g id="ytick_4">
     <g id="line2d_31">
      <path d="M 73.634375 173.698099 
L 539.471023 173.698099 
" clip-path="url(#p1181d7ed2a)" style="fill: none; stroke: #dddddd; stroke-width: 0.8; stroke-linecap: square"/>
     </g>
     <g id="line2d_32">
      <g>
       <use xlink:href="#m95532898ba" x="73.634375" y="173.698099" style="stroke: #000000; stroke-width: 0.8"/>
      </g>
     </g>
     <g id="text_8">
      <!-- 1.5 GiB -->
      <g transform="translate(33.8125 177.117396) scale(0.09 -0.09)">
       <defs>
        <path id="DejaVuSans-2e" d="M 684 794 
L 1344 794 
L 1344 0 
L 684 0 
L 684 794 
z
" transform="scale(0.015625)"/>
        <path id="DejaVuSans-47" d="M 3809 666 
L 3809 1919 
L 2778 1919 
L 2778 2438 
L 4434 2438 
L 4434 434 
Q 4069 175 3628 42 
Q 3188 -91 2688 -91 
Q 1594 -91 976 548 
Q 359 1188 359 2328 
Q 359 3472 976 4111 
Q 1594 4750 2688 4750 
Q 3144 4750 3555 4637 
Q 3966 4525 4313 4306 
L 4313 3634 
Q 3963 3931 3569 4081 
Q 3175 4231 2741 4231 
Q 1884 4231 1454 3753 
Q 1025 3275 1025 2328 
Q 1025 1384 1454 906 
Q 1884 428 2741 428 
Q 3075 428 3337 486 
Q 3600 544 3809 666 
z
" transform="scale(0.015625)"/>
       </defs>
       <use xlink:href="#DejaVuSans-31"/>
       <use xlink:href="#DejaVuSans-2e" transform="translate(63.623047 0)"/>
       <use xlink:href="#DejaVuSans-35" transform="translate(95.410156 0)"/>
       <use xlink:href="#DejaVuSans-20" transform="translate(159.033203 0)"/>
       <use xlink:href="#DejaVuSans-47" transform="translate(190.820312 0)"/>
       <use xlink:href="#DejaVuSans-69" transform="translate(268.310547 0)"/>
       <use xlink:href="#DejaVuSans-42" transform="translate(296.09375 0)"/>
      </g>
     </g>
    </g>
    <g id="ytick_5">
     <g id="line2d_33">
      <path d="M 73.634375 142.915038 
L 539.471023 142.915038 
" clip-path="url(#p1181d7ed2a)" style="fill: none; stroke: #dddddd; stroke-width: 0.8; stroke-linecap: square"/>
     </g>
     <g id="line2d_34">
      <g>
       <use xlink:href="#m95532898ba" x="73.634375" y="142.915038" style="stroke: #000000; stroke-width: 0.8"/>
      </g>
     </g>
     <g id="text_9">
      <!-- 2.0 GiB -->
      <g transform="translate(33.8125 146.334334) scale(0.09 -0.09)">
       <defs>
        <path id="DejaVuSans-32" d="M 1228 531 
L 3431 531 
L 3431 0 
L 469 0 
L 469 531 
Q 828 903 1448 1529 
Q 2069 2156 2228 2338 
Q 2531 2678 2651 2914 
Q 2772 3150 2772 3378 
Q 2772 3750 2511 3984 
Q 2250 4219 1831 4219 
Q 1534 4219 1204 4116 
Q 875 4013 500 3803 
L 500 4441 
Q 881 4594 1212 4672 
Q 1544 4750 1819 4750 
Q 2544 4750 2975 4387 
Q 3406 4025 3406 3419 
Q 3406 3131 3298 2873 
Q 3191 2616 2906 2266 
Q 2828 2175 2409 1742 
Q 1991 1309 1228 531 
z
" transform="scale(0.015625)"/>
       </defs>
       <use xlink:href="#DejaVuSans-32"/>
       <use xlink:href="#DejaVuSans-2e" transform="translate(63.623047 0)"/>
       <use xlink:href="#DejaVuSans-30" transform="translate(95.410156 0)"/>
       <use xlink:href="#DejaVuSans-20" transform="translate(159.033203 0)"/>
       <use xlink:href="#DejaVuSans-47" transform="translate(190.820312 0)"/>
       <use xlink:href="#DejaVuSans-69" transform="translate(268.310547 0)"/>
       <use xlink:href="#DejaVuSans-42" transform="translate(296.09375 0)"/>
      </g>
     </g>
    </g>
    <g id="ytick_6">
     <g id="line2d_35">
      <path d="M 73.634375 112.131976 
L 539.471023 112.131976 
" clip-path="url(#p1181d7ed2a)" style="fill: none; stroke: #dddddd; stroke-width: 0.8; stroke-linecap: square"/>
     </g>
     <g id="line2d_36">
      <g>
       <use xlink:href="#m95532898ba" x="73.634375" y="112.131976" style="stroke: #000000; stroke-width: 0.8"/>
      </g>
     </g>
     <g id="text_10">
      <!-- 2.4 GiB -->
      <g transform="translate(33.8125 115.551273) scale(0.09 -0.09)">
       <defs>
        <path id="DejaVuSans-34" d="M 2419 4116 
L 825 1625 
L 2419 1625 
L 2419 4116 
z
M 2253 4666 
L 3047 4666 
L 3047 1625 
L 3713 1625 
L 3713 1100 
L 3047 1100 
L 3047 0 
L 2419 0 
L 2419 1100 
L 313 1100 
L 313 1709 
L 2253 4666 
z
" transform="scale(0.015625)"/>
       </defs>
       <use xlink:href="#DejaVuSans-32"/>
       <use xlink:href="#DejaVuSans-2e" transform="translate(63.623047 0)"/>
       <use xlink:href="#DejaVuSans-34" transform="translate(95.410156 0)"/>
       <use xlink:href="#DejaVuSans-20" transform="translate(159.033203 0)"/>
       <use xlink:href="#DejaVuSans-47" transform="translate(190.820312 0)"/>
       <use xlink:href="#DejaVuSans-69" transform="translate(268.310547 0)"/>
       <use xlink:href="#DejaVuSans-42" transform="translate(296.09375 0)"/>
      </g>
     </g>
    </g>
    <g id="ytick_7">
     <g id="line2d_37">
      <path d="M 73.634375 81.348914 
L 539.471023 81.348914 
" clip-path="url(#p1181d7ed2a)" style="fill: none; stroke: #dddddd; stroke-width: 0.8; stroke-linecap: square"/>
     </g>
     <g id="line2d_38">
      <g>
       <use xlink:href="#m95532898ba" x="73.634375" y="81.348914" style="stroke: #000000; stroke-width: 0.8"/>
      </g>
     </g>
     <g id="text_11">
      <!-- 2.9 GiB -->
      <g transform="translate(33.8125 84.768211) scale(0.09 -0.09)">
       <defs>
        <path id="DejaVuSans-39" d="M 703 97 
L 703 672 
Q 941 559 1184 500 
Q 1428 441 1663 441 
Q 2288 441 2617 861 
Q 2947 1281 2994 2138 
Q 2813 1869 2534 1725 
Q 2256 1581 1919 1581 
Q 1219 1581 811 2004 
Q 403 2428 403 3163 
Q 403 3881 828 4315 
Q 1253 4750 1959 4750 
Q 2769 4750 3195 4129 
Q 3622 3509 3622 2328 
Q 3622 1225 3098 567 
Q 2575 -91 1691 -91 
Q 1453 -91 1209 -44 
Q 966 3 703 97 
z
M 1959 2075 
Q 2384 2075 2632 2365 
Q 2881 2656 2881 3163 
Q 2881 3666 2632 3958 
Q 2384 4250 1959 4250 
Q 1534 4250 1286 3958 
Q 1038 3666 1038 3163 
Q 1038 2656 1286 2365 
Q 1534 2075 1959 2075 
z
" transform="scale(0.015625)"/>
       </defs>
       <use xlink:href="#DejaVuSans-32"/>
       <use xlink:href="#DejaVuSans-2e" transform="translate(63.623047 0)"/>
       <use xlink:href="#DejaVuSans-39" transform="translate(95.410156 0)"/>
       <use xlink:href="#DejaVuSans-20" transform="translate(159.033203 0)"/>
       <use xlink:href="#DejaVuSans-47" transform="translate(190.820312 0)"/>
       <use xlink:href="#DejaVuSans-69" transform="translate(268.310547 0)"/>
       <use xlink:href="#DejaVuSans-42" transform="translate(296.09375 0)"/>
      </g>
     </g>
    </g>
    <g id="ytick_8">
     <g id="line2d_39">
      <path d="M 73.634375 50.565853 
L 539.471023 50.565853 
" clip-path="url(#p1181d7ed2a)" style="fill: none; stroke: #dddddd; stroke-width: 0.8; stroke-linecap: square"/>
     </g>
     <g id="line2d_40">
      <g>
       <use xlink:href="#m95532898ba" x="73.634375" y="50.565853" style="stroke: #000000; stroke-width: 0.8"/>
      </g>
     </g>
     <g id="text_12">
      <!-- 3.4 GiB -->
      <g transform="translate(33.8125 53.98515) scale(0.09 -0.09)">
       <defs>
        <path id="DejaVuSans-33" d="M 2597 2516 
Q 3050 2419 3304 2112 
Q 3559 1806 3559 1356 
Q 3559 666 3084 287 
Q 2609 -91 1734 -91 
Q 1441 -91 1130 -33 
Q 819 25 488 141 
L 488 750 
Q 750 597 1062 519 
Q 1375 441 1716 441 
Q 2309 441 2620 675 
Q 2931 909 2931 1356 
Q 2931 1769 2642 2001 
Q 2353 2234 1838 2234 
L 1294 2234 
L 1294 2753 
L 1863 2753 
Q 2328 2753 2575 2939 
Q 2822 3125 2822 3475 
Q 2822 3834 2567 4026 
Q 2313 4219 1838 4219 
Q 1578 4219 1281 4162 
Q 984 4106 628 3988 
L 628 4550 
Q 988 4650 1302 4700 
Q 1616 4750 1894 4750 
Q 2613 4750 3031 4423 
Q 3450 4097 3450 3541 
Q 3450 3153 3228 2886 
Q 3006 2619 2597 2516 
z
" transform="scale(0.015625)"/>
       </defs>
       <use xlink:href="#DejaVuSans-33"/>
       <use xlink:href="#DejaVuSans-2e" transform="translate(63.623047 0)"/>
       <use xlink:href="#DejaVuSans-34" transform="translate(95.410156 0)"/>
       <use xlink:href="#DejaVuSans-20" transform="translate(159.033203 0)"/>
       <use xlink:href="#DejaVuSans-47" transform="translate(190.820312 0)"/>
       <use xlink:href="#DejaVuSans-69" transform="translate(268.310547 0)"/>
       <use xlink:href="#DejaVuSans-42" transform="translate(296.09375 0)"/>
      </g>
     </g>
    </g>
    <g id="text_13">
     <!-- backend RSS (MiB) -->
     <g transform="translate(18.348906 204.327031) rotate(-90) scale(0.1 -0.1)">
      <defs>
       <path id="DejaVuSans-62" d="M 3116 1747 
Q 3116 2381 2855 2742 
Q 2594 3103 2138 3103 
Q 1681 3103 1420 2742 
Q 1159 2381 1159 1747 
Q 1159 1113 1420 752 
Q 1681 391 2138 391 
Q 2594 391 2855 752 
Q 3116 1113 3116 1747 
z
M 1159 2969 
Q 1341 3281 1617 3432 
Q 1894 3584 2278 3584 
Q 2916 3584 3314 3078 
Q 3713 2572 3713 1747 
Q 3713 922 3314 415 
Q 2916 -91 2278 -91 
Q 1894 -91 1617 61 
Q 1341 213 1159 525 
L 1159 0 
L 581 0 
L 581 4863 
L 1159 4863 
L 1159 2969 
z
" transform="scale(0.015625)"/>
       <path id="DejaVuSans-61" d="M 2194 1759 
Q 1497 1759 1228 1600 
Q 959 1441 959 1056 
Q 959 750 1161 570 
Q 1363 391 1709 391 
Q 2188 391 2477 730 
Q 2766 1069 2766 1631 
L 2766 1759 
L 2194 1759 
z
M 3341 1997 
L 3341 0 
L 2766 0 
L 2766 531 
Q 2569 213 2275 61 
Q 1981 -91 1556 -91 
Q 1019 -91 701 211 
Q 384 513 384 1019 
Q 384 1609 779 1909 
Q 1175 2209 1959 2209 
L 2766 2209 
L 2766 2266 
Q 2766 2663 2505 2880 
Q 2244 3097 1772 3097 
Q 1472 3097 1187 3025 
Q 903 2953 641 2809 
L 641 3341 
Q 956 3463 1253 3523 
Q 1550 3584 1831 3584 
Q 2591 3584 2966 3190 
Q 3341 2797 3341 1997 
z
" transform="scale(0.015625)"/>
       <path id="DejaVuSans-6b" d="M 581 4863 
L 1159 4863 
L 1159 1991 
L 2875 3500 
L 3609 3500 
L 1753 1863 
L 3688 0 
L 2938 0 
L 1159 1709 
L 1159 0 
L 581 0 
L 581 4863 
z
" transform="scale(0.015625)"/>
       <path id="DejaVuSans-6e" d="M 3513 2113 
L 3513 0 
L 2938 0 
L 2938 2094 
Q 2938 2591 2744 2837 
Q 2550 3084 2163 3084 
Q 1697 3084 1428 2787 
Q 1159 2491 1159 1978 
L 1159 0 
L 581 0 
L 581 3500 
L 1159 3500 
L 1159 2956 
Q 1366 3272 1645 3428 
Q 1925 3584 2291 3584 
Q 2894 3584 3203 3211 
Q 3513 2838 3513 2113 
z
" transform="scale(0.015625)"/>
       <path id="DejaVuSans-64" d="M 2906 2969 
L 2906 4863 
L 3481 4863 
L 3481 0 
L 2906 0 
L 2906 525 
Q 2725 213 2448 61 
Q 2172 -91 1784 -91 
Q 1150 -91 751 415 
Q 353 922 353 1747 
Q 353 2572 751 3078 
Q 1150 3584 1784 3584 
Q 2172 3584 2448 3432 
Q 2725 3281 2906 2969 
z
M 947 1747 
Q 947 1113 1208 752 
Q 1469 391 1925 391 
Q 2381 391 2643 752 
Q 2906 1113 2906 1747 
Q 2906 2381 2643 2742 
Q 2381 3103 1925 3103 
Q 1469 3103 1208 2742 
Q 947 2381 947 1747 
z
" transform="scale(0.015625)"/>
       <path id="DejaVuSans-52" d="M 2841 2188 
Q 3044 2119 3236 1894 
Q 3428 1669 3622 1275 
L 4263 0 
L 3584 0 
L 2988 1197 
Q 2756 1666 2539 1819 
Q 2322 1972 1947 1972 
L 1259 1972 
L 1259 0 
L 628 0 
L 628 4666 
L 2053 4666 
Q 2853 4666 3247 4331 
Q 3641 3997 3641 3322 
Q 3641 2881 3436 2590 
Q 3231 2300 2841 2188 
z
M 1259 4147 
L 1259 2491 
L 2053 2491 
Q 2509 2491 2742 2702 
Q 2975 2913 2975 3322 
Q 2975 3731 2742 3939 
Q 2509 4147 2053 4147 
L 1259 4147 
z
" transform="scale(0.015625)"/>
       <path id="DejaVuSans-53" d="M 3425 4513 
L 3425 3897 
Q 3066 4069 2747 4153 
Q 2428 4238 2131 4238 
Q 1616 4238 1336 4038 
Q 1056 3838 1056 3469 
Q 1056 3159 1242 3001 
Q 1428 2844 1947 2747 
L 2328 2669 
Q 3034 2534 3370 2195 
Q 3706 1856 3706 1288 
Q 3706 609 3251 259 
Q 2797 -91 1919 -91 
Q 1588 -91 1214 -16 
Q 841 59 441 206 
L 441 856 
Q 825 641 1194 531 
Q 1563 422 1919 422 
Q 2459 422 2753 634 
Q 3047 847 3047 1241 
Q 3047 1584 2836 1778 
Q 2625 1972 2144 2069 
L 1759 2144 
Q 1053 2284 737 2584 
Q 422 2884 422 3419 
Q 422 4038 858 4394 
Q 1294 4750 2059 4750 
Q 2388 4750 2728 4690 
Q 3069 4631 3425 4513 
z
" transform="scale(0.015625)"/>
      </defs>
      <use xlink:href="#DejaVuSans-62"/>
      <use xlink:href="#DejaVuSans-61" transform="translate(63.476562 0)"/>
      <use xlink:href="#DejaVuSans-63" transform="translate(124.755859 0)"/>
      <use xlink:href="#DejaVuSans-6b" transform="translate(179.736328 0)"/>
      <use xlink:href="#DejaVuSans-65" transform="translate(234.021484 0)"/>
      <use xlink:href="#DejaVuSans-6e" transform="translate(295.544922 0)"/>
      <use xlink:href="#DejaVuSans-64" transform="translate(358.923828 0)"/>
      <use xlink:href="#DejaVuSans-20" transform="translate(422.400391 0)"/>
      <use xlink:href="#DejaVuSans-52" transform="translate(454.1875 0)"/>
      <use xlink:href="#DejaVuSans-53" transform="translate(523.669922 0)"/>
      <use xlink:href="#DejaVuSans-53" transform="translate(587.146484 0)"/>
      <use xlink:href="#DejaVuSans-20" transform="translate(650.623047 0)"/>
      <use xlink:href="#DejaVuSans-28" transform="translate(682.410156 0)"/>
      <use xlink:href="#DejaVuSans-4d" transform="translate(721.423828 0)"/>
      <use xlink:href="#DejaVuSans-69" transform="translate(807.703125 0)"/>
      <use xlink:href="#DejaVuSans-42" transform="translate(835.486328 0)"/>
      <use xlink:href="#DejaVuSans-29" transform="translate(904.089844 0)"/>
     </g>
    </g>
   </g>
   <g id="line2d_41">
    <path d="M 94.808768 258.735345 
L 179.07015 258.612212 
L 242.811424 243.940236 
L 306.552699 241.112042 
L 370.293973 247.706351 
L 421.755805 217.715953 
L 454.555355 163.915819 
L 491.84161 230.318731 
L 518.29663 250.442195 
" clip-path="url(#p1181d7ed2a)" style="fill: none; stroke: #f85149; stroke-width: 2.4; stroke-linecap: square"/>
    <defs>
     <path id="m4835bc80f0" d="M -3.25 3.25 
L 3.25 3.25 
L 3.25 -3.25 
L -3.25 -3.25 
z
" style="stroke: #f85149; stroke-linejoin: miter"/>
    </defs>
    <g clip-path="url(#p1181d7ed2a)">
     <use xlink:href="#m4835bc80f0" x="94.808768" y="258.735345" style="fill: #f85149; stroke: #f85149; stroke-linejoin: miter"/>
     <use xlink:href="#m4835bc80f0" x="179.07015" y="258.612212" style="fill: #f85149; stroke: #f85149; stroke-linejoin: miter"/>
     <use xlink:href="#m4835bc80f0" x="242.811424" y="243.940236" style="fill: #f85149; stroke: #f85149; stroke-linejoin: miter"/>
     <use xlink:href="#m4835bc80f0" x="306.552699" y="241.112042" style="fill: #f85149; stroke: #f85149; stroke-linejoin: miter"/>
     <use xlink:href="#m4835bc80f0" x="370.293973" y="247.706351" style="fill: #f85149; stroke: #f85149; stroke-linejoin: miter"/>
     <use xlink:href="#m4835bc80f0" x="421.755805" y="217.715953" style="fill: #f85149; stroke: #f85149; stroke-linejoin: miter"/>
     <use xlink:href="#m4835bc80f0" x="454.555355" y="163.915819" style="fill: #f85149; stroke: #f85149; stroke-linejoin: miter"/>
     <use xlink:href="#m4835bc80f0" x="491.84161" y="230.318731" style="fill: #f85149; stroke: #f85149; stroke-linejoin: miter"/>
     <use xlink:href="#m4835bc80f0" x="518.29663" y="250.442195" style="fill: #f85149; stroke: #f85149; stroke-linejoin: miter"/>
    </g>
   </g>
   <g id="line2d_42">
    <path d="M 94.808768 265.633636 
L 179.07015 265.468177 
L 242.811424 265.299833 
L 306.552699 264.971801 
L 370.293973 264.397504 
L 421.755805 263.715467 
L 454.555355 262.905488 
L 491.84161 261.980072 
L 518.29663 262.708284 
" clip-path="url(#p1181d7ed2a)" style="fill: none; stroke: #1f6feb; stroke-width: 2.4; stroke-linecap: square"/>
    <defs>
     <path id="maee46152a5" d="M 0 3.25 
C 0.86191 3.25 1.688635 2.907559 2.298097 2.298097 
C 2.907559 1.688635 3.25 0.86191 3.25 0 
C 3.25 -0.86191 2.907559 -1.688635 2.298097 -2.298097 
C 1.688635 -2.907559 0.86191 -3.25 0 -3.25 
C -0.86191 -3.25 -1.688635 -2.907559 -2.298097 -2.298097 
C -2.907559 -1.688635 -3.25 -0.86191 -3.25 0 
C -3.25 0.86191 -2.907559 1.688635 -2.298097 2.298097 
C -1.688635 2.907559 -0.86191 3.25 0 3.25 
z
" style="stroke: #1f6feb"/>
    </defs>
    <g clip-path="url(#p1181d7ed2a)">
     <use xlink:href="#maee46152a5" x="94.808768" y="265.633636" style="fill: #1f6feb; stroke: #1f6feb"/>
     <use xlink:href="#maee46152a5" x="179.07015" y="265.468177" style="fill: #1f6feb; stroke: #1f6feb"/>
     <use xlink:href="#maee46152a5" x="242.811424" y="265.299833" style="fill: #1f6feb; stroke: #1f6feb"/>
     <use xlink:href="#maee46152a5" x="306.552699" y="264.971801" style="fill: #1f6feb; stroke: #1f6feb"/>
     <use xlink:href="#maee46152a5" x="370.293973" y="264.397504" style="fill: #1f6feb; stroke: #1f6feb"/>
     <use xlink:href="#maee46152a5" x="421.755805" y="263.715467" style="fill: #1f6feb; stroke: #1f6feb"/>
     <use xlink:href="#maee46152a5" x="454.555355" y="262.905488" style="fill: #1f6feb; stroke: #1f6feb"/>
     <use xlink:href="#maee46152a5" x="491.84161" y="261.980072" style="fill: #1f6feb; stroke: #1f6feb"/>
     <use xlink:href="#maee46152a5" x="518.29663" y="262.708284" style="fill: #1f6feb; stroke: #1f6feb"/>
    </g>
   </g>
   <g id="patch_3">
    <path d="M 73.634375 276.48 
L 73.634375 37.86 
" style="fill: none; stroke: #000000; stroke-width: 0.8; stroke-linejoin: miter; stroke-linecap: square"/>
   </g>
   <g id="patch_4">
    <path d="M 73.634375 276.48 
L 539.471023 276.48 
" style="fill: none; stroke: #000000; stroke-width: 0.8; stroke-linejoin: miter; stroke-linecap: square"/>
   </g>
   <g id="text_14">
    <!-- skeg @1M -->
    <g style="fill: #1f6feb" transform="translate(526.29663 223.851056) scale(0.09 -0.09)">
     <defs>
      <path id="DejaVuSans-67" d="M 2906 1791 
Q 2906 2416 2648 2759 
Q 2391 3103 1925 3103 
Q 1463 3103 1205 2759 
Q 947 2416 947 1791 
Q 947 1169 1205 825 
Q 1463 481 1925 481 
Q 2391 481 2648 825 
Q 2906 1169 2906 1791 
z
M 3481 434 
Q 3481 -459 3084 -895 
Q 2688 -1331 1869 -1331 
Q 1566 -1331 1297 -1286 
Q 1028 -1241 775 -1147 
L 775 -588 
Q 1028 -725 1275 -790 
Q 1522 -856 1778 -856 
Q 2344 -856 2625 -561 
Q 2906 -266 2906 331 
L 2906 616 
Q 2728 306 2450 153 
Q 2172 0 1784 0 
Q 1141 0 747 490 
Q 353 981 353 1791 
Q 353 2603 747 3093 
Q 1141 3584 1784 3584 
Q 2172 3584 2450 3431 
Q 2728 3278 2906 2969 
L 2906 3500 
L 3481 3500 
L 3481 434 
z
" transform="scale(0.015625)"/>
      <path id="DejaVuSans-40" d="M 2381 1678 
Q 2381 1231 2603 976 
Q 2825 722 3213 722 
Q 3597 722 3817 978 
Q 4038 1234 4038 1678 
Q 4038 2116 3813 2373 
Q 3588 2631 3206 2631 
Q 2828 2631 2604 2375 
Q 2381 2119 2381 1678 
z
M 4084 744 
Q 3897 503 3655 389 
Q 3413 275 3091 275 
Q 2553 275 2217 664 
Q 1881 1053 1881 1678 
Q 1881 2303 2218 2693 
Q 2556 3084 3091 3084 
Q 3413 3084 3656 2967 
Q 3900 2850 4084 2613 
L 4084 3022 
L 4531 3022 
L 4531 722 
Q 4988 791 5245 1139 
Q 5503 1488 5503 2041 
Q 5503 2375 5404 2669 
Q 5306 2963 5106 3213 
Q 4781 3622 4314 3839 
Q 3847 4056 3297 4056 
Q 2913 4056 2559 3954 
Q 2206 3853 1906 3653 
Q 1416 3334 1139 2817 
Q 863 2300 863 1697 
Q 863 1200 1042 765 
Q 1222 331 1563 0 
Q 1891 -325 2322 -495 
Q 2753 -666 3244 -666 
Q 3647 -666 4036 -530 
Q 4425 -394 4750 -141 
L 5031 -488 
Q 4641 -791 4180 -952 
Q 3719 -1113 3244 -1113 
Q 2666 -1113 2153 -908 
Q 1641 -703 1241 -313 
Q 841 78 631 592 
Q 422 1106 422 1697 
Q 422 2266 634 2781 
Q 847 3297 1241 3688 
Q 1644 4084 2172 4295 
Q 2700 4506 3291 4506 
Q 3953 4506 4520 4234 
Q 5088 3963 5472 3463 
Q 5706 3156 5829 2797 
Q 5953 2438 5953 2053 
Q 5953 1231 5456 756 
Q 4959 281 4084 263 
L 4084 744 
z
" transform="scale(0.015625)"/>
     </defs>
     <use xlink:href="#DejaVuSans-73"/>
     <use xlink:href="#DejaVuSans-6b" transform="translate(52.099609 0)"/>
     <use xlink:href="#DejaVuSans-65" transform="translate(106.384766 0)"/>
     <use xlink:href="#DejaVuSans-67" transform="translate(167.908203 0)"/>
     <use xlink:href="#DejaVuSans-20" transform="translate(231.384766 0)"/>
     <use xlink:href="#DejaVuSans-40" transform="translate(263.171875 0)"/>
     <use xlink:href="#DejaVuSans-31" transform="translate(363.171875 0)"/>
     <use xlink:href="#DejaVuSans-4d" transform="translate(426.794922 0)"/>
    </g>
    <!-- p50 54 MiB · max 66 MiB -->
    <g style="fill: #1f6feb" transform="translate(526.29663 233.929087) scale(0.09 -0.09)">
     <defs>
      <path id="DejaVuSans-b7" d="M 684 2619 
L 1344 2619 
L 1344 1825 
L 684 1825 
L 684 2619 
z
" transform="scale(0.015625)"/>
      <path id="DejaVuSans-6d" d="M 3328 2828 
Q 3544 3216 3844 3400 
Q 4144 3584 4550 3584 
Q 5097 3584 5394 3201 
Q 5691 2819 5691 2113 
L 5691 0 
L 5113 0 
L 5113 2094 
Q 5113 2597 4934 2840 
Q 4756 3084 4391 3084 
Q 3944 3084 3684 2787 
Q 3425 2491 3425 1978 
L 3425 0 
L 2847 0 
L 2847 2094 
Q 2847 2600 2669 2842 
Q 2491 3084 2119 3084 
Q 1678 3084 1418 2786 
Q 1159 2488 1159 1978 
L 1159 0 
L 581 0 
L 581 3500 
L 1159 3500 
L 1159 2956 
Q 1356 3278 1631 3431 
Q 1906 3584 2284 3584 
Q 2666 3584 2933 3390 
Q 3200 3197 3328 2828 
z
" transform="scale(0.015625)"/>
      <path id="DejaVuSans-78" d="M 3513 3500 
L 2247 1797 
L 3578 0 
L 2900 0 
L 1881 1375 
L 863 0 
L 184 0 
L 1544 1831 
L 300 3500 
L 978 3500 
L 1906 2253 
L 2834 3500 
L 3513 3500 
z
" transform="scale(0.015625)"/>
      <path id="DejaVuSans-36" d="M 2113 2584 
Q 1688 2584 1439 2293 
Q 1191 2003 1191 1497 
Q 1191 994 1439 701 
Q 1688 409 2113 409 
Q 2538 409 2786 701 
Q 3034 994 3034 1497 
Q 3034 2003 2786 2293 
Q 2538 2584 2113 2584 
z
M 3366 4563 
L 3366 3988 
Q 3128 4100 2886 4159 
Q 2644 4219 2406 4219 
Q 1781 4219 1451 3797 
Q 1122 3375 1075 2522 
Q 1259 2794 1537 2939 
Q 1816 3084 2150 3084 
Q 2853 3084 3261 2657 
Q 3669 2231 3669 1497 
Q 3669 778 3244 343 
Q 2819 -91 2113 -91 
Q 1303 -91 875 529 
Q 447 1150 447 2328 
Q 447 3434 972 4092 
Q 1497 4750 2381 4750 
Q 2619 4750 2861 4703 
Q 3103 4656 3366 4563 
z
" transform="scale(0.015625)"/>
     </defs>
     <use xlink:href="#DejaVuSans-70"/>
     <use xlink:href="#DejaVuSans-35" transform="translate(63.476562 0)"/>
     <use xlink:href="#DejaVuSans-30" transform="translate(127.099609 0)"/>
     <use xlink:href="#DejaVuSans-20" transform="translate(190.722656 0)"/>
     <use xlink:href="#DejaVuSans-35" transform="translate(222.509766 0)"/>
     <use xlink:href="#DejaVuSans-34" transform="translate(286.132812 0)"/>
     <use xlink:href="#DejaVuSans-20" transform="translate(349.755859 0)"/>
     <use xlink:href="#DejaVuSans-4d" transform="translate(381.542969 0)"/>
     <use xlink:href="#DejaVuSans-69" transform="translate(467.822266 0)"/>
     <use xlink:href="#DejaVuSans-42" transform="translate(495.605469 0)"/>
     <use xlink:href="#DejaVuSans-20" transform="translate(564.208984 0)"/>
     <use xlink:href="#DejaVuSans-b7" transform="translate(595.996094 0)"/>
     <use xlink:href="#DejaVuSans-20" transform="translate(627.783203 0)"/>
     <use xlink:href="#DejaVuSans-6d" transform="translate(659.570312 0)"/>
     <use xlink:href="#DejaVuSans-61" transform="translate(756.982422 0)"/>
     <use xlink:href="#DejaVuSans-78" transform="translate(818.261719 0)"/>
     <use xlink:href="#DejaVuSans-20" transform="translate(877.441406 0)"/>
     <use xlink:href="#DejaVuSans-36" transform="translate(909.228516 0)"/>
     <use xlink:href="#DejaVuSans-36" transform="translate(972.851562 0)"/>
     <use xlink:href="#DejaVuSans-20" transform="translate(1036.474609 0)"/>
     <use xlink:href="#DejaVuSans-4d" transform="translate(1068.261719 0)"/>
     <use xlink:href="#DejaVuSans-69" transform="translate(1154.541016 0)"/>
     <use xlink:href="#DejaVuSans-42" transform="translate(1182.324219 0)"/>
    </g>
   </g>
   <g id="text_15">
    <!-- qdrant @1M -->
    <g style="fill: #f85149" transform="translate(348.29663 123.03689) scale(0.09 -0.09)">
     <defs>
      <path id="DejaVuSans-71" d="M 947 1747 
Q 947 1113 1208 752 
Q 1469 391 1925 391 
Q 2381 391 2643 752 
Q 2906 1113 2906 1747 
Q 2906 2381 2643 2742 
Q 2381 3103 1925 3103 
Q 1469 3103 1208 2742 
Q 947 2381 947 1747 
z
M 2906 525 
Q 2725 213 2448 61 
Q 2172 -91 1784 -91 
Q 1150 -91 751 415 
Q 353 922 353 1747 
Q 353 2572 751 3078 
Q 1150 3584 1784 3584 
Q 2172 3584 2448 3432 
Q 2725 3281 2906 2969 
L 2906 3500 
L 3481 3500 
L 3481 -1331 
L 2906 -1331 
L 2906 525 
z
" transform="scale(0.015625)"/>
     </defs>
     <use xlink:href="#DejaVuSans-71"/>
     <use xlink:href="#DejaVuSans-64" transform="translate(63.476562 0)"/>
     <use xlink:href="#DejaVuSans-72" transform="translate(126.953125 0)"/>
     <use xlink:href="#DejaVuSans-61" transform="translate(168.066406 0)"/>
     <use xlink:href="#DejaVuSans-6e" transform="translate(229.345703 0)"/>
     <use xlink:href="#DejaVuSans-74" transform="translate(292.724609 0)"/>
     <use xlink:href="#DejaVuSans-20" transform="translate(331.933594 0)"/>
     <use xlink:href="#DejaVuSans-40" transform="translate(363.720703 0)"/>
     <use xlink:href="#DejaVuSans-31" transform="translate(463.720703 0)"/>
     <use xlink:href="#DejaVuSans-4d" transform="translate(527.34375 0)"/>
    </g>
    <!-- p50 253 MiB · max 2.3 GiB -->
    <g style="fill: #f85149" transform="translate(348.29663 133.114921) scale(0.09 -0.09)">
     <use xlink:href="#DejaVuSans-70"/>
     <use xlink:href="#DejaVuSans-35" transform="translate(63.476562 0)"/>
     <use xlink:href="#DejaVuSans-30" transform="translate(127.099609 0)"/>
     <use xlink:href="#DejaVuSans-20" transform="translate(190.722656 0)"/>
     <use xlink:href="#DejaVuSans-32" transform="translate(222.509766 0)"/>
     <use xlink:href="#DejaVuSans-35" transform="translate(286.132812 0)"/>
     <use xlink:href="#DejaVuSans-33" transform="translate(349.755859 0)"/>
     <use xlink:href="#DejaVuSans-20" transform="translate(413.378906 0)"/>
     <use xlink:href="#DejaVuSans-4d" transform="translate(445.166016 0)"/>
     <use xlink:href="#DejaVuSans-69" transform="translate(531.445312 0)"/>
     <use xlink:href="#DejaVuSans-42" transform="translate(559.228516 0)"/>
     <use xlink:href="#DejaVuSans-20" transform="translate(627.832031 0)"/>
     <use xlink:href="#DejaVuSans-b7" transform="translate(659.619141 0)"/>
     <use xlink:href="#DejaVuSans-20" transform="translate(691.40625 0)"/>
     <use xlink:href="#DejaVuSans-6d" transform="translate(723.193359 0)"/>
     <use xlink:href="#DejaVuSans-61" transform="translate(820.605469 0)"/>
     <use xlink:href="#DejaVuSans-78" transform="translate(881.884766 0)"/>
     <use xlink:href="#DejaVuSans-20" transform="translate(941.064453 0)"/>
     <use xlink:href="#DejaVuSans-32" transform="translate(972.851562 0)"/>
     <use xlink:href="#DejaVuSans-2e" transform="translate(1036.474609 0)"/>
     <use xlink:href="#DejaVuSans-33" transform="translate(1068.261719 0)"/>
     <use xlink:href="#DejaVuSans-20" transform="translate(1131.884766 0)"/>
     <use xlink:href="#DejaVuSans-47" transform="translate(1163.671875 0)"/>
     <use xlink:href="#DejaVuSans-69" transform="translate(1241.162109 0)"/>
     <use xlink:href="#DejaVuSans-42" transform="translate(1268.945312 0)"/>
    </g>
   </g>
   <g id="text_16">
    <!-- Co-resident backend RSS while a 3B LLM serves RAG -->
    <g transform="translate(73.634375 19.542406) scale(0.11 -0.11)">
     <defs>
      <path id="DejaVuSans-43" d="M 4122 4306 
L 4122 3641 
Q 3803 3938 3442 4084 
Q 3081 4231 2675 4231 
Q 1875 4231 1450 3742 
Q 1025 3253 1025 2328 
Q 1025 1406 1450 917 
Q 1875 428 2675 428 
Q 3081 428 3442 575 
Q 3803 722 4122 1019 
L 4122 359 
Q 3791 134 3420 21 
Q 3050 -91 2638 -91 
Q 1578 -91 968 557 
Q 359 1206 359 2328 
Q 359 3453 968 4101 
Q 1578 4750 2638 4750 
Q 3056 4750 3426 4639 
Q 3797 4528 4122 4306 
z
" transform="scale(0.015625)"/>
      <path id="DejaVuSans-2d" d="M 313 2009 
L 1997 2009 
L 1997 1497 
L 313 1497 
L 313 2009 
z
" transform="scale(0.015625)"/>
      <path id="DejaVuSans-77" d="M 269 3500 
L 844 3500 
L 1563 769 
L 2278 3500 
L 2956 3500 
L 3675 769 
L 4391 3500 
L 4966 3500 
L 4050 0 
L 3372 0 
L 2619 2869 
L 1863 0 
L 1184 0 
L 269 3500 
z
" transform="scale(0.015625)"/>
      <path id="DejaVuSans-68" d="M 3513 2113 
L 3513 0 
L 2938 0 
L 2938 2094 
Q 2938 2591 2744 2837 
Q 2550 3084 2163 3084 
Q 1697 3084 1428 2787 
Q 1159 2491 1159 1978 
L 1159 0 
L 581 0 
L 581 4863 
L 1159 4863 
L 1159 2956 
Q 1366 3272 1645 3428 
Q 1925 3584 2291 3584 
Q 2894 3584 3203 3211 
Q 3513 2838 3513 2113 
z
" transform="scale(0.015625)"/>
      <path id="DejaVuSans-6c" d="M 603 4863 
L 1178 4863 
L 1178 0 
L 603 0 
L 603 4863 
z
" transform="scale(0.015625)"/>
      <path id="DejaVuSans-4c" d="M 628 4666 
L 1259 4666 
L 1259 531 
L 3531 531 
L 3531 0 
L 628 0 
L 628 4666 
z
" transform="scale(0.015625)"/>
      <path id="DejaVuSans-41" d="M 2188 4044 
L 1331 1722 
L 3047 1722 
L 2188 4044 
z
M 1831 4666 
L 2547 4666 
L 4325 0 
L 3669 0 
L 3244 1197 
L 1141 1197 
L 716 0 
L 50 0 
L 1831 4666 
z
" transform="scale(0.015625)"/>
     </defs>
     <use xlink:href="#DejaVuSans-43"/>
     <use xlink:href="#DejaVuSans-6f" transform="translate(69.824219 0)"/>
     <use xlink:href="#DejaVuSans-2d" transform="translate(132.880859 0)"/>
     <use xlink:href="#DejaVuSans-72" transform="translate(168.964844 0)"/>
     <use xlink:href="#DejaVuSans-65" transform="translate(207.828125 0)"/>
     <use xlink:href="#DejaVuSans-73" transform="translate(269.351562 0)"/>
     <use xlink:href="#DejaVuSans-69" transform="translate(321.451172 0)"/>
     <use xlink:href="#DejaVuSans-64" transform="translate(349.234375 0)"/>
     <use xlink:href="#DejaVuSans-65" transform="translate(412.710938 0)"/>
     <use xlink:href="#DejaVuSans-6e" transform="translate(474.234375 0)"/>
     <use xlink:href="#DejaVuSans-74" transform="translate(537.613281 0)"/>
     <use xlink:href="#DejaVuSans-20" transform="translate(576.822266 0)"/>
     <use xlink:href="#DejaVuSans-62" transform="translate(608.609375 0)"/>
     <use xlink:href="#DejaVuSans-61" transform="translate(672.085938 0)"/>
     <use xlink:href="#DejaVuSans-63" transform="translate(733.365234 0)"/>
     <use xlink:href="#DejaVuSans-6b" transform="translate(788.345703 0)"/>
     <use xlink:href="#DejaVuSans-65" transform="translate(842.630859 0)"/>
     <use xlink:href="#DejaVuSans-6e" transform="translate(904.154297 0)"/>
     <use xlink:href="#DejaVuSans-64" transform="translate(967.533203 0)"/>
     <use xlink:href="#DejaVuSans-20" transform="translate(1031.009766 0)"/>
     <use xlink:href="#DejaVuSans-52" transform="translate(1062.796875 0)"/>
     <use xlink:href="#DejaVuSans-53" transform="translate(1132.279297 0)"/>
     <use xlink:href="#DejaVuSans-53" transform="translate(1195.755859 0)"/>
     <use xlink:href="#DejaVuSans-20" transform="translate(1259.232422 0)"/>
     <use xlink:href="#DejaVuSans-77" transform="translate(1291.019531 0)"/>
     <use xlink:href="#DejaVuSans-68" transform="translate(1372.806641 0)"/>
     <use xlink:href="#DejaVuSans-69" transform="translate(1436.185547 0)"/>
     <use xlink:href="#DejaVuSans-6c" transform="translate(1463.96875 0)"/>
     <use xlink:href="#DejaVuSans-65" transform="translate(1491.751953 0)"/>
     <use xlink:href="#DejaVuSans-20" transform="translate(1553.275391 0)"/>
     <use xlink:href="#DejaVuSans-61" transform="translate(1585.0625 0)"/>
     <use xlink:href="#DejaVuSans-20" transform="translate(1646.341797 0)"/>
     <use xlink:href="#DejaVuSans-33" transform="translate(1678.128906 0)"/>
     <use xlink:href="#DejaVuSans-42" transform="translate(1741.751953 0)"/>
     <use xlink:href="#DejaVuSans-20" transform="translate(1810.355469 0)"/>
     <use xlink:href="#DejaVuSans-4c" transform="translate(1842.142578 0)"/>
     <use xlink:href="#DejaVuSans-4c" transform="translate(1897.855469 0)"/>
     <use xlink:href="#DejaVuSans-4d" transform="translate(1953.568359 0)"/>
     <use xlink:href="#DejaVuSans-20" transform="translate(2039.847656 0)"/>
     <use xlink:href="#DejaVuSans-73" transform="translate(2071.634766 0)"/>
     <use xlink:href="#DejaVuSans-65" transform="translate(2123.734375 0)"/>
     <use xlink:href="#DejaVuSans-72" transform="translate(2185.257812 0)"/>
     <use xlink:href="#DejaVuSans-76" transform="translate(2226.371094 0)"/>
     <use xlink:href="#DejaVuSans-65" transform="translate(2285.550781 0)"/>
     <use xlink:href="#DejaVuSans-73" transform="translate(2347.074219 0)"/>
     <use xlink:href="#DejaVuSans-20" transform="translate(2399.173828 0)"/>
     <use xlink:href="#DejaVuSans-52" transform="translate(2430.960938 0)"/>
     <use xlink:href="#DejaVuSans-41" transform="translate(2496.443359 0)"/>
     <use xlink:href="#DejaVuSans-47" transform="translate(2563.101562 0)"/>
    </g>
    <!-- M1 Pro 16 GiB · Llama 3.2 Q4_K_M · mxbai-embed-large · line = p50, band = p50→max -->
    <g transform="translate(73.634375 31.86) scale(0.11 -0.11)">
     <defs>
      <path id="DejaVuSans-50" d="M 1259 4147 
L 1259 2394 
L 2053 2394 
Q 2494 2394 2734 2622 
Q 2975 2850 2975 3272 
Q 2975 3691 2734 3919 
Q 2494 4147 2053 4147 
L 1259 4147 
z
M 628 4666 
L 2053 4666 
Q 2838 4666 3239 4311 
Q 3641 3956 3641 3272 
Q 3641 2581 3239 2228 
Q 2838 1875 2053 1875 
L 1259 1875 
L 1259 0 
L 628 0 
L 628 4666 
z
" transform="scale(0.015625)"/>
      <path id="DejaVuSans-51" d="M 2522 4238 
Q 1834 4238 1429 3725 
Q 1025 3213 1025 2328 
Q 1025 1447 1429 934 
Q 1834 422 2522 422 
Q 3209 422 3611 934 
Q 4013 1447 4013 2328 
Q 4013 3213 3611 3725 
Q 3209 4238 2522 4238 
z
M 3406 84 
L 4238 -825 
L 3475 -825 
L 2784 -78 
Q 2681 -84 2626 -87 
Q 2572 -91 2522 -91 
Q 1538 -91 948 567 
Q 359 1225 359 2328 
Q 359 3434 948 4092 
Q 1538 4750 2522 4750 
Q 3503 4750 4090 4092 
Q 4678 3434 4678 2328 
Q 4678 1516 4351 937 
Q 4025 359 3406 84 
z
" transform="scale(0.015625)"/>
      <path id="DejaVuSans-5f" d="M 3263 -1063 
L 3263 -1509 
L -63 -1509 
L -63 -1063 
L 3263 -1063 
z
" transform="scale(0.015625)"/>
      <path id="DejaVuSans-3d" d="M 678 2906 
L 4684 2906 
L 4684 2381 
L 678 2381 
L 678 2906 
z
M 678 1631 
L 4684 1631 
L 4684 1100 
L 678 1100 
L 678 1631 
z
" transform="scale(0.015625)"/>
      <path id="DejaVuSans-2c" d="M 750 794 
L 1409 794 
L 1409 256 
L 897 -744 
L 494 -744 
L 750 256 
L 750 794 
z
" transform="scale(0.015625)"/>
      <path id="DejaVuSans-2192" d="M 5050 2147 
L 5050 1866 
L 3822 638 
L 3447 1013 
L 4175 1741 
L 366 1741 
L 366 2272 
L 4175 2272 
L 3447 3000 
L 3822 3375 
L 5050 2147 
z
" transform="scale(0.015625)"/>
     </defs>
     <use xlink:href="#DejaVuSans-4d"/>
     <use xlink:href="#DejaVuSans-31" transform="translate(86.279297 0)"/>
     <use xlink:href="#DejaVuSans-20" transform="translate(149.902344 0)"/>
     <use xlink:href="#DejaVuSans-50" transform="translate(181.689453 0)"/>
     <use xlink:href="#DejaVuSans-72" transform="translate(240.242188 0)"/>
     <use xlink:href="#DejaVuSans-6f" transform="translate(279.105469 0)"/>
     <use xlink:href="#DejaVuSans-20" transform="translate(340.287109 0)"/>
     <use xlink:href="#DejaVuSans-31" transform="translate(372.074219 0)"/>
     <use xlink:href="#DejaVuSans-36" transform="translate(435.697266 0)"/>
     <use xlink:href="#DejaVuSans-20" transform="translate(499.320312 0)"/>
     <use xlink:href="#DejaVuSans-47" transform="translate(531.107422 0)"/>
     <use xlink:href="#DejaVuSans-69" transform="translate(608.597656 0)"/>
     <use xlink:href="#DejaVuSans-42" transform="translate(636.380859 0)"/>
     <use xlink:href="#DejaVuSans-20" transform="translate(704.984375 0)"/>
     <use xlink:href="#DejaVuSans-b7" transform="translate(736.771484 0)"/>
     <use xlink:href="#DejaVuSans-20" transform="translate(768.558594 0)"/>
     <use xlink:href="#DejaVuSans-4c" transform="translate(800.345703 0)"/>
     <use xlink:href="#DejaVuSans-6c" transform="translate(856.058594 0)"/>
     <use xlink:href="#DejaVuSans-61" transform="translate(883.841797 0)"/>
     <use xlink:href="#DejaVuSans-6d" transform="translate(945.121094 0)"/>
     <use xlink:href="#DejaVuSans-61" transform="translate(1042.533203 0)"/>
     <use xlink:href="#DejaVuSans-20" transform="translate(1103.8125 0)"/>
     <use xlink:href="#DejaVuSans-33" transform="translate(1135.599609 0)"/>
     <use xlink:href="#DejaVuSans-2e" transform="translate(1199.222656 0)"/>
     <use xlink:href="#DejaVuSans-32" transform="translate(1231.009766 0)"/>
     <use xlink:href="#DejaVuSans-20" transform="translate(1294.632812 0)"/>
     <use xlink:href="#DejaVuSans-51" transform="translate(1326.419922 0)"/>
     <use xlink:href="#DejaVuSans-34" transform="translate(1405.130859 0)"/>
     <use xlink:href="#DejaVuSans-5f" transform="translate(1468.753906 0)"/>
     <use xlink:href="#DejaVuSans-4b" transform="translate(1518.753906 0)"/>
     <use xlink:href="#DejaVuSans-5f" transform="translate(1584.330078 0)"/>
     <use xlink:href="#DejaVuSans-4d" transform="translate(1634.330078 0)"/>
     <use xlink:href="#DejaVuSans-20" transform="translate(1720.609375 0)"/>
     <use xlink:href="#DejaVuSans-b7" transform="translate(1752.396484 0)"/>
     <use xlink:href="#DejaVuSans-20" transform="translate(1784.183594 0)"/>
     <use xlink:href="#DejaVuSans-6d" transform="translate(1815.970703 0)"/>
     <use xlink:href="#DejaVuSans-78" transform="translate(1913.382812 0)"/>
     <use xlink:href="#DejaVuSans-62" transform="translate(1972.5625 0)"/>
     <use xlink:href="#DejaVuSans-61" transform="translate(2036.039062 0)"/>
     <use xlink:href="#DejaVuSans-69" transform="translate(2097.318359 0)"/>
     <use xlink:href="#DejaVuSans-2d" transform="translate(2125.101562 0)"/>
     <use xlink:href="#DejaVuSans-65" transform="translate(2161.185547 0)"/>
     <use xlink:href="#DejaVuSans-6d" transform="translate(2222.708984 0)"/>
     <use xlink:href="#DejaVuSans-62" transform="translate(2320.121094 0)"/>
     <use xlink:href="#DejaVuSans-65" transform="translate(2383.597656 0)"/>
     <use xlink:href="#DejaVuSans-64" transform="translate(2445.121094 0)"/>
     <use xlink:href="#DejaVuSans-2d" transform="translate(2508.597656 0)"/>
     <use xlink:href="#DejaVuSans-6c" transform="translate(2544.681641 0)"/>
     <use xlink:href="#DejaVuSans-61" transform="translate(2572.464844 0)"/>
     <use xlink:href="#DejaVuSans-72" transform="translate(2633.744141 0)"/>
     <use xlink:href="#DejaVuSans-67" transform="translate(2673.107422 0)"/>
     <use xlink:href="#DejaVuSans-65" transform="translate(2736.583984 0)"/>
     <use xlink:href="#DejaVuSans-20" transform="translate(2798.107422 0)"/>
     <use xlink:href="#DejaVuSans-b7" transform="translate(2829.894531 0)"/>
     <use xlink:href="#DejaVuSans-20" transform="translate(2861.681641 0)"/>
     <use xlink:href="#DejaVuSans-6c" transform="translate(2893.46875 0)"/>
     <use xlink:href="#DejaVuSans-69" transform="translate(2921.251953 0)"/>
     <use xlink:href="#DejaVuSans-6e" transform="translate(2949.035156 0)"/>
     <use xlink:href="#DejaVuSans-65" transform="translate(3012.414062 0)"/>
     <use xlink:href="#DejaVuSans-20" transform="translate(3073.9375 0)"/>
     <use xlink:href="#DejaVuSans-3d" transform="translate(3105.724609 0)"/>
     <use xlink:href="#DejaVuSans-20" transform="translate(3189.513672 0)"/>
     <use xlink:href="#DejaVuSans-70" transform="translate(3221.300781 0)"/>
     <use xlink:href="#DejaVuSans-35" transform="translate(3284.777344 0)"/>
     <use xlink:href="#DejaVuSans-30" transform="translate(3348.400391 0)"/>
     <use xlink:href="#DejaVuSans-2c" transform="translate(3412.023438 0)"/>
     <use xlink:href="#DejaVuSans-20" transform="translate(3443.810547 0)"/>
     <use xlink:href="#DejaVuSans-62" transform="translate(3475.597656 0)"/>
     <use xlink:href="#DejaVuSans-61" transform="translate(3539.074219 0)"/>
     <use xlink:href="#DejaVuSans-6e" transform="translate(3600.353516 0)"/>
     <use xlink:href="#DejaVuSans-64" transform="translate(3663.732422 0)"/>
     <use xlink:href="#DejaVuSans-20" transform="translate(3727.208984 0)"/>
     <use xlink:href="#DejaVuSans-3d" transform="translate(3758.996094 0)"/>
     <use xlink:href="#DejaVuSans-20" transform="translate(3842.785156 0)"/>
     <use xlink:href="#DejaVuSans-70" transform="translate(3874.572266 0)"/>
     <use xlink:href="#DejaVuSans-35" transform="translate(3938.048828 0)"/>
     <use xlink:href="#DejaVuSans-30" transform="translate(4001.671875 0)"/>
     <use xlink:href="#DejaVuSans-2192" transform="translate(4065.294922 0)"/>
     <use xlink:href="#DejaVuSans-6d" transform="translate(4149.083984 0)"/>
     <use xlink:href="#DejaVuSans-61" transform="translate(4246.496094 0)"/>
     <use xlink:href="#DejaVuSans-78" transform="translate(4307.775391 0)"/>
    </g>
   </g>
   <g id="legend_1">
    <g id="line2d_43">
     <path d="M 82.634375 50.958437 
L 92.634375 50.958437 
L 102.634375 50.958437 
" style="fill: none; stroke: #f85149; stroke-width: 2.4; stroke-linecap: square"/>
     <g>
      <use xlink:href="#m4835bc80f0" x="92.634375" y="50.958437" style="fill: #f85149; stroke: #f85149; stroke-linejoin: miter"/>
     </g>
    </g>
    <g id="text_17">
     <!-- qdrant (hnsw) -->
     <g transform="translate(110.634375 54.458437) scale(0.1 -0.1)">
      <use xlink:href="#DejaVuSans-71"/>
      <use xlink:href="#DejaVuSans-64" transform="translate(63.476562 0)"/>
      <use xlink:href="#DejaVuSans-72" transform="translate(126.953125 0)"/>
      <use xlink:href="#DejaVuSans-61" transform="translate(168.066406 0)"/>
      <use xlink:href="#DejaVuSans-6e" transform="translate(229.345703 0)"/>
      <use xlink:href="#DejaVuSans-74" transform="translate(292.724609 0)"/>
      <use xlink:href="#DejaVuSans-20" transform="translate(331.933594 0)"/>
      <use xlink:href="#DejaVuSans-28" transform="translate(363.720703 0)"/>
      <use xlink:href="#DejaVuSans-68" transform="translate(402.734375 0)"/>
      <use xlink:href="#DejaVuSans-6e" transform="translate(466.113281 0)"/>
      <use xlink:href="#DejaVuSans-73" transform="translate(529.492188 0)"/>
      <use xlink:href="#DejaVuSans-77" transform="translate(581.591797 0)"/>
      <use xlink:href="#DejaVuSans-29" transform="translate(663.378906 0)"/>
     </g>
    </g>
    <g id="line2d_44">
     <path d="M 82.634375 65.636562 
L 92.634375 65.636562 
L 102.634375 65.636562 
" style="fill: none; stroke: #1f6feb; stroke-width: 2.4; stroke-linecap: square"/>
     <g>
      <use xlink:href="#maee46152a5" x="92.634375" y="65.636562" style="fill: #1f6feb; stroke: #1f6feb"/>
     </g>
    </g>
    <g id="text_18">
     <!-- skeg-pq128 -->
     <g transform="translate(110.634375 69.136562) scale(0.1 -0.1)">
      <defs>
       <path id="DejaVuSans-38" d="M 2034 2216 
Q 1584 2216 1326 1975 
Q 1069 1734 1069 1313 
Q 1069 891 1326 650 
Q 1584 409 2034 409 
Q 2484 409 2743 651 
Q 3003 894 3003 1313 
Q 3003 1734 2745 1975 
Q 2488 2216 2034 2216 
z
M 1403 2484 
Q 997 2584 770 2862 
Q 544 3141 544 3541 
Q 544 4100 942 4425 
Q 1341 4750 2034 4750 
Q 2731 4750 3128 4425 
Q 3525 4100 3525 3541 
Q 3525 3141 3298 2862 
Q 3072 2584 2669 2484 
Q 3125 2378 3379 2068 
Q 3634 1759 3634 1313 
Q 3634 634 3220 271 
Q 2806 -91 2034 -91 
Q 1263 -91 848 271 
Q 434 634 434 1313 
Q 434 1759 690 2068 
Q 947 2378 1403 2484 
z
M 1172 3481 
Q 1172 3119 1398 2916 
Q 1625 2713 2034 2713 
Q 2441 2713 2670 2916 
Q 2900 3119 2900 3481 
Q 2900 3844 2670 4047 
Q 2441 4250 2034 4250 
Q 1625 4250 1398 4047 
Q 1172 3844 1172 3481 
z
" transform="scale(0.015625)"/>
      </defs>
      <use xlink:href="#DejaVuSans-73"/>
      <use xlink:href="#DejaVuSans-6b" transform="translate(52.099609 0)"/>
      <use xlink:href="#DejaVuSans-65" transform="translate(106.384766 0)"/>
      <use xlink:href="#DejaVuSans-67" transform="translate(167.908203 0)"/>
      <use xlink:href="#DejaVuSans-2d" transform="translate(231.384766 0)"/>
      <use xlink:href="#DejaVuSans-70" transform="translate(267.46875 0)"/>
      <use xlink:href="#DejaVuSans-71" transform="translate(330.945312 0)"/>
      <use xlink:href="#DejaVuSans-31" transform="translate(394.421875 0)"/>
      <use xlink:href="#DejaVuSans-32" transform="translate(458.044922 0)"/>
      <use xlink:href="#DejaVuSans-38" transform="translate(521.667969 0)"/>
     </g>
    </g>
   </g>
  </g>
  <g id="text_19">
   <!-- @1M corpus: qdrant/skeg p50 ≈ 4.7×  ·  max ≈ 36×  (p50 lines look close, max diverges by a full order of magnitude) -->
   <g style="fill: #444444" transform="translate(57.212578 336.816281) scale(0.09 -0.09)">
    <defs>
     <path id="DejaVuSans-3a" d="M 750 794 
L 1409 794 
L 1409 0 
L 750 0 
L 750 794 
z
M 750 3309 
L 1409 3309 
L 1409 2516 
L 750 2516 
L 750 3309 
z
" transform="scale(0.015625)"/>
     <path id="DejaVuSans-2f" d="M 1625 4666 
L 2156 4666 
L 531 -594 
L 0 -594 
L 1625 4666 
z
" transform="scale(0.015625)"/>
     <path id="DejaVuSans-2248" d="M 4684 1947 
L 4684 1388 
Q 4356 1144 4076 1036 
Q 3797 928 3494 928 
Q 3150 928 2694 1113 
Q 2663 1125 2641 1134 
Q 2622 1141 2575 1159 
Q 2091 1350 1797 1350 
Q 1522 1350 1253 1231 
Q 984 1113 678 850 
L 678 1409 
Q 1006 1653 1286 1761 
Q 1566 1869 1869 1869 
Q 2213 1869 2672 1684 
Q 2706 1669 2722 1663 
Q 2741 1656 2788 1638 
Q 3272 1447 3566 1447 
Q 3834 1447 4098 1564 
Q 4363 1681 4684 1947 
z
M 4684 3163 
L 4684 2606 
Q 4356 2359 4076 2251 
Q 3797 2144 3494 2144 
Q 3150 2144 2694 2328 
Q 2663 2341 2641 2350 
Q 2622 2356 2575 2375 
Q 2091 2566 1797 2566 
Q 1522 2566 1253 2447 
Q 984 2328 678 2069 
L 678 2625 
Q 1006 2869 1286 2976 
Q 1566 3084 1869 3084 
Q 2213 3084 2672 2900 
Q 2703 2888 2719 2881 
Q 2741 2872 2788 2853 
Q 3272 2663 3566 2663 
Q 3834 2663 4098 2780 
Q 4363 2897 4684 3163 
z
" transform="scale(0.015625)"/>
     <path id="DejaVuSans-37" d="M 525 4666 
L 3525 4666 
L 3525 4397 
L 1831 0 
L 1172 0 
L 2766 4134 
L 525 4134 
L 525 4666 
z
" transform="scale(0.015625)"/>
     <path id="DejaVuSans-d7" d="M 4488 3438 
L 3059 2003 
L 4488 575 
L 4116 197 
L 2681 1631 
L 1247 197 
L 878 575 
L 2303 2003 
L 878 3438 
L 1247 3816 
L 2681 2381 
L 4116 3816 
L 4488 3438 
z
" transform="scale(0.015625)"/>
     <path id="DejaVuSans-79" d="M 2059 -325 
Q 1816 -950 1584 -1140 
Q 1353 -1331 966 -1331 
L 506 -1331 
L 506 -850 
L 844 -850 
Q 1081 -850 1212 -737 
Q 1344 -625 1503 -206 
L 1606 56 
L 191 3500 
L 800 3500 
L 1894 763 
L 2988 3500 
L 3597 3500 
L 2059 -325 
z
" transform="scale(0.015625)"/>
     <path id="DejaVuSans-66" d="M 2375 4863 
L 2375 4384 
L 1825 4384 
Q 1516 4384 1395 4259 
Q 1275 4134 1275 3809 
L 1275 3500 
L 2222 3500 
L 2222 3053 
L 1275 3053 
L 1275 0 
L 697 0 
L 697 3053 
L 147 3053 
L 147 3500 
L 697 3500 
L 697 3744 
Q 697 4328 969 4595 
Q 1241 4863 1831 4863 
L 2375 4863 
z
" transform="scale(0.015625)"/>
    </defs>
    <use xlink:href="#DejaVuSans-40"/>
    <use xlink:href="#DejaVuSans-31" transform="translate(100 0)"/>
    <use xlink:href="#DejaVuSans-4d" transform="translate(163.623047 0)"/>
    <use xlink:href="#DejaVuSans-20" transform="translate(249.902344 0)"/>
    <use xlink:href="#DejaVuSans-63" transform="translate(281.689453 0)"/>
    <use xlink:href="#DejaVuSans-6f" transform="translate(336.669922 0)"/>
    <use xlink:href="#DejaVuSans-72" transform="translate(397.851562 0)"/>
    <use xlink:href="#DejaVuSans-70" transform="translate(438.964844 0)"/>
    <use xlink:href="#DejaVuSans-75" transform="translate(502.441406 0)"/>
    <use xlink:href="#DejaVuSans-73" transform="translate(565.820312 0)"/>
    <use xlink:href="#DejaVuSans-3a" transform="translate(617.919922 0)"/>
    <use xlink:href="#DejaVuSans-20" transform="translate(651.611328 0)"/>
    <use xlink:href="#DejaVuSans-71" transform="translate(683.398438 0)"/>
    <use xlink:href="#DejaVuSans-64" transform="translate(746.875 0)"/>
    <use xlink:href="#DejaVuSans-72" transform="translate(810.351562 0)"/>
    <use xlink:href="#DejaVuSans-61" transform="translate(851.464844 0)"/>
    <use xlink:href="#DejaVuSans-6e" transform="translate(912.744141 0)"/>
    <use xlink:href="#DejaVuSans-74" transform="translate(976.123047 0)"/>
    <use xlink:href="#DejaVuSans-2f" transform="translate(1015.332031 0)"/>
    <use xlink:href="#DejaVuSans-73" transform="translate(1049.023438 0)"/>
    <use xlink:href="#DejaVuSans-6b" transform="translate(1101.123047 0)"/>
    <use xlink:href="#DejaVuSans-65" transform="translate(1155.408203 0)"/>
    <use xlink:href="#DejaVuSans-67" transform="translate(1216.931641 0)"/>
    <use xlink:href="#DejaVuSans-20" transform="translate(1280.408203 0)"/>
    <use xlink:href="#DejaVuSans-70" transform="translate(1312.195312 0)"/>
    <use xlink:href="#DejaVuSans-35" transform="translate(1375.671875 0)"/>
    <use xlink:href="#DejaVuSans-30" transform="translate(1439.294922 0)"/>
    <use xlink:href="#DejaVuSans-20" transform="translate(1502.917969 0)"/>
    <use xlink:href="#DejaVuSans-2248" transform="translate(1534.705078 0)"/>
    <use xlink:href="#DejaVuSans-20" transform="translate(1618.494141 0)"/>
    <use xlink:href="#DejaVuSans-34" transform="translate(1650.28125 0)"/>
    <use xlink:href="#DejaVuSans-2e" transform="translate(1713.904297 0)"/>
    <use xlink:href="#DejaVuSans-37" transform="translate(1745.691406 0)"/>
    <use xlink:href="#DejaVuSans-d7" transform="translate(1809.314453 0)"/>
    <use xlink:href="#DejaVuSans-20" transform="translate(1893.103516 0)"/>
    <use xlink:href="#DejaVuSans-20" transform="translate(1924.890625 0)"/>
    <use xlink:href="#DejaVuSans-b7" transform="translate(1956.677734 0)"/>
    <use xlink:href="#DejaVuSans-20" transform="translate(1988.464844 0)"/>
    <use xlink:href="#DejaVuSans-20" transform="translate(2020.251953 0)"/>
    <use xlink:href="#DejaVuSans-6d" transform="translate(2052.039062 0)"/>
    <use xlink:href="#DejaVuSans-61" transform="translate(2149.451172 0)"/>
    <use xlink:href="#DejaVuSans-78" transform="translate(2210.730469 0)"/>
    <use xlink:href="#DejaVuSans-20" transform="translate(2269.910156 0)"/>
    <use xlink:href="#DejaVuSans-2248" transform="translate(2301.697266 0)"/>
    <use xlink:href="#DejaVuSans-20" transform="translate(2385.486328 0)"/>
    <use xlink:href="#DejaVuSans-33" transform="translate(2417.273438 0)"/>
    <use xlink:href="#DejaVuSans-36" transform="translate(2480.896484 0)"/>
    <use xlink:href="#DejaVuSans-d7" transform="translate(2544.519531 0)"/>
    <use xlink:href="#DejaVuSans-20" transform="translate(2628.308594 0)"/>
    <use xlink:href="#DejaVuSans-20" transform="translate(2660.095703 0)"/>
    <use xlink:href="#DejaVuSans-28" transform="translate(2691.882812 0)"/>
    <use xlink:href="#DejaVuSans-70" transform="translate(2730.896484 0)"/>
    <use xlink:href="#DejaVuSans-35" transform="translate(2794.373047 0)"/>
    <use xlink:href="#DejaVuSans-30" transform="translate(2857.996094 0)"/>
    <use xlink:href="#DejaVuSans-20" transform="translate(2921.619141 0)"/>
    <use xlink:href="#DejaVuSans-6c" transform="translate(2953.40625 0)"/>
    <use xlink:href="#DejaVuSans-69" transform="translate(2981.189453 0)"/>
    <use xlink:href="#DejaVuSans-6e" transform="translate(3008.972656 0)"/>
    <use xlink:href="#DejaVuSans-65" transform="translate(3072.351562 0)"/>
    <use xlink:href="#DejaVuSans-73" transform="translate(3133.875 0)"/>
    <use xlink:href="#DejaVuSans-20" transform="translate(3185.974609 0)"/>
    <use xlink:href="#DejaVuSans-6c" transform="translate(3217.761719 0)"/>
    <use xlink:href="#DejaVuSans-6f" transform="translate(3245.544922 0)"/>
    <use xlink:href="#DejaVuSans-6f" transform="translate(3306.726562 0)"/>
    <use xlink:href="#DejaVuSans-6b" transform="translate(3367.908203 0)"/>
    <use xlink:href="#DejaVuSans-20" transform="translate(3425.818359 0)"/>
    <use xlink:href="#DejaVuSans-63" transform="translate(3457.605469 0)"/>
    <use xlink:href="#DejaVuSans-6c" transform="translate(3512.585938 0)"/>
    <use xlink:href="#DejaVuSans-6f" transform="translate(3540.369141 0)"/>
    <use xlink:href="#DejaVuSans-73" transform="translate(3601.550781 0)"/>
    <use xlink:href="#DejaVuSans-65" transform="translate(3653.650391 0)"/>
    <use xlink:href="#DejaVuSans-2c" transform="translate(3715.173828 0)"/>
    <use xlink:href="#DejaVuSans-20" transform="translate(3746.960938 0)"/>
    <use xlink:href="#DejaVuSans-6d" transform="translate(3778.748047 0)"/>
    <use xlink:href="#DejaVuSans-61" transform="translate(3876.160156 0)"/>
    <use xlink:href="#DejaVuSans-78" transform="translate(3937.439453 0)"/>
    <use xlink:href="#DejaVuSans-20" transform="translate(3996.619141 0)"/>
    <use xlink:href="#DejaVuSans-64" transform="translate(4028.40625 0)"/>
    <use xlink:href="#DejaVuSans-69" transform="translate(4091.882812 0)"/>
    <use xlink:href="#DejaVuSans-76" transform="translate(4119.666016 0)"/>
    <use xlink:href="#DejaVuSans-65" transform="translate(4178.845703 0)"/>
    <use xlink:href="#DejaVuSans-72" transform="translate(4240.369141 0)"/>
    <use xlink:href="#DejaVuSans-67" transform="translate(4279.732422 0)"/>
    <use xlink:href="#DejaVuSans-65" transform="translate(4343.208984 0)"/>
    <use xlink:href="#DejaVuSans-73" transform="translate(4404.732422 0)"/>
    <use xlink:href="#DejaVuSans-20" transform="translate(4456.832031 0)"/>
    <use xlink:href="#DejaVuSans-62" transform="translate(4488.619141 0)"/>
    <use xlink:href="#DejaVuSans-79" transform="translate(4552.095703 0)"/>
    <use xlink:href="#DejaVuSans-20" transform="translate(4611.275391 0)"/>
    <use xlink:href="#DejaVuSans-61" transform="translate(4643.0625 0)"/>
    <use xlink:href="#DejaVuSans-20" transform="translate(4704.341797 0)"/>
    <use xlink:href="#DejaVuSans-66" transform="translate(4736.128906 0)"/>
    <use xlink:href="#DejaVuSans-75" transform="translate(4771.333984 0)"/>
    <use xlink:href="#DejaVuSans-6c" transform="translate(4834.712891 0)"/>
    <use xlink:href="#DejaVuSans-6c" transform="translate(4862.496094 0)"/>
    <use xlink:href="#DejaVuSans-20" transform="translate(4890.279297 0)"/>
    <use xlink:href="#DejaVuSans-6f" transform="translate(4922.066406 0)"/>
    <use xlink:href="#DejaVuSans-72" transform="translate(4983.248047 0)"/>
    <use xlink:href="#DejaVuSans-64" transform="translate(5022.611328 0)"/>
    <use xlink:href="#DejaVuSans-65" transform="translate(5086.087891 0)"/>
    <use xlink:href="#DejaVuSans-72" transform="translate(5147.611328 0)"/>
    <use xlink:href="#DejaVuSans-20" transform="translate(5188.724609 0)"/>
    <use xlink:href="#DejaVuSans-6f" transform="translate(5220.511719 0)"/>
    <use xlink:href="#DejaVuSans-66" transform="translate(5281.693359 0)"/>
    <use xlink:href="#DejaVuSans-20" transform="translate(5316.898438 0)"/>
    <use xlink:href="#DejaVuSans-6d" transform="translate(5348.685547 0)"/>
    <use xlink:href="#DejaVuSans-61" transform="translate(5446.097656 0)"/>
    <use xlink:href="#DejaVuSans-67" transform="translate(5507.376953 0)"/>
    <use xlink:href="#DejaVuSans-6e" transform="translate(5570.853516 0)"/>
    <use xlink:href="#DejaVuSans-69" transform="translate(5634.232422 0)"/>
    <use xlink:href="#DejaVuSans-74" transform="translate(5662.015625 0)"/>
    <use xlink:href="#DejaVuSans-75" transform="translate(5701.224609 0)"/>
    <use xlink:href="#DejaVuSans-64" transform="translate(5764.603516 0)"/>
    <use xlink:href="#DejaVuSans-65" transform="translate(5828.080078 0)"/>
    <use xlink:href="#DejaVuSans-29" transform="translate(5889.603516 0)"/>
   </g>
  </g>
 </g>
 <defs>
  <clipPath id="p1181d7ed2a">
   <rect x="73.634375" y="37.86" width="465.836648" height="238.62"/>
  </clipPath>
 </defs>
</svg>
